<svg width="221" height="150" viewBox="0 0 221 150" fill="none" xmlns="http://www.w3.org/2000/svg">
<path d="M0.0426636 18C0.0426636 8.05888 8.10154 0 18.0427 0H202.043C211.984 0 220.043 8.05887 220.043 18V132C220.043 141.941 211.984 150 202.043 150H18.0427C8.10153 150 0.0426636 141.941 0.0426636 132V18Z" fill="#008AAF"/>
<path d="M78.9999 37V123.217H141.857V50.6259L129.309 37H78.9999ZM130.278 43.1322L136.21 49.5733H130.278V43.1322ZM82.3082 119.625V40.5924H126.97V53.1657H138.549V119.625H82.3082Z" fill="#FEFEFE"/>
<path d="M128.624 65.1274H92.2332V68.7198H128.624V65.1274Z" fill="#FEFEFE"/>
<path d="M128.624 75.9048H92.2332V79.4972H128.624V75.9048Z" fill="#FEFEFE"/>
<path d="M128.624 86.6819H92.2332V90.2743H128.624V86.6819Z" fill="#FEFEFE"/>
<path d="M128.624 97.459H92.2332V101.051H128.624V97.459Z" fill="#FEFEFE"/>
</svg>
